<?xml version="1.0" standalone="no"?>
<!DOCTYPE svg PUBLIC "-//W3C//DTD SVG 20010904//EN"
 "http://www.w3.org/TR/2001/REC-SVG-20010904/DTD/svg10.dtd">
<svg version="1.0" xmlns="http://www.w3.org/2000/svg"
 width="100.000000pt" height="100.000000pt" viewBox="0 0 100.000000 100.000000"
 preserveAspectRatio="xMidYMid meet">
<metadata>
Created by potrace 1.14, written by Peter Selinger 2001-2017
</metadata>
<g transform="translate(0.000000,100.000000) scale(0.100000,-0.100000)"
fill="#000000" stroke="none">
<path d="M330 918 c0 -7 33 -44 74 -84 90 -88 125 -134 132 -170 5 -28 -12
-84 -26 -84 -14 0 -33 -60 -32 -103 1 -23 10 -85 21 -137 11 -55 19 -131 19
-179 -1 -50 3 -86 9 -88 10 -4 31 57 37 112 4 35 15 63 56 148 41 85 44 112
26 203 -10 50 -13 90 -8 109 5 17 3 50 -3 80 -13 54 -4 114 21 152 15 24 19
53 6 53 -7 0 -25 -26 -49 -70 -9 -17 -13 -20 -13 -8 0 23 -34 32 -59 16 -23
-14 -44 -64 -34 -82 3 -6 -14 11 -38 38 -39 43 -118 106 -133 106 -3 0 -6 -5
-6 -12z m235 -111 c-5 -23 -2 -39 7 -48 26 -26 37 -75 26 -115 -7 -27 -6 -54
2 -96 16 -72 9 -128 -22 -196 l-25 -53 -18 78 c-26 106 -24 141 8 188 32 47
34 91 8 145 -11 22 -15 40 -10 40 5 0 6 13 3 30 -4 18 -1 36 6 45 19 22 22 19
15 -18z"/>
</g>
</svg>
